REM DIRINDEX 1\2,1\3,1\4,1\5\6,1\5\7,1\8
REM DIRNAME folder01,folder02,folder03,folder04,folder05,folder06,folder07,folder08
TITLE ""
FILE "115 【115】Unit7 (1297 scorn_1308 generosity).mp3" MP3
  TRACK 01 AUDIO
    TITLE "0:"
    INDEX 01 00:00:00
  TRACK 02 AUDIO
    TITLE "8:cjc115_4505"
    INDEX 01 00:00:07
  TRACK 03 AUDIO
    TITLE "0:"
    INDEX 01 00:01:44
  TRACK 04 AUDIO
    TITLE "2:cjc115_4506"
    INDEX 01 00:02:16
  TRACK 05 AUDIO
    TITLE "0:"
    INDEX 01 00:03:33
  TRACK 06 AUDIO
    TITLE "3:cjc115_4507"
    INDEX 01 00:03:41
  TRACK 07 AUDIO
    TITLE "0:"
    INDEX 01 00:05:73
  TRACK 08 AUDIO
    TITLE "4:cjc115_4508"
    INDEX 01 00:06:12
  TRACK 09 AUDIO
    TITLE "0:"
    INDEX 01 00:10:19
  TRACK 10 AUDIO
    TITLE "2:cjc115_4509"
    INDEX 01 00:11:29
  TRACK 11 AUDIO
    TITLE "0:"
    INDEX 01 00:12:36
  TRACK 12 AUDIO
    TITLE "3:cjc115_4510"
    INDEX 01 00:12:38
  TRACK 13 AUDIO
    TITLE "0:"
    INDEX 01 00:14:33
  TRACK 14 AUDIO
    TITLE "4:cjc115_4511"
    INDEX 01 00:14:43
  TRACK 15 AUDIO
    TITLE "0:"
    INDEX 01 00:18:21
  TRACK 16 AUDIO
    TITLE "2:cjc115_4512"
    INDEX 01 00:19:28
  TRACK 17 AUDIO
    TITLE "0:"
    INDEX 01 00:20:36
  TRACK 18 AUDIO
    TITLE "3:cjc115_4513"
    INDEX 01 00:20:39
  TRACK 19 AUDIO
    TITLE "0:"
    INDEX 01 00:21:43
  TRACK 20 AUDIO
    TITLE "4:cjc115_4514"
    INDEX 01 00:21:53
  TRACK 21 AUDIO
    TITLE "0:"
    INDEX 01 00:24:55
  TRACK 22 AUDIO
    TITLE "2:cjc115_4515"
    INDEX 01 00:25:60
  TRACK 23 AUDIO
    TITLE "0:"
    INDEX 01 00:26:71
  TRACK 24 AUDIO
    TITLE "3:cjc115_4516"
    INDEX 01 00:27:00
  TRACK 25 AUDIO
    TITLE "0:"
    INDEX 01 00:28:25
  TRACK 26 AUDIO
    TITLE "4:cjc115_4517"
    INDEX 01 00:28:27
  TRACK 27 AUDIO
    TITLE "0:"
    INDEX 01 00:31:65
  TRACK 28 AUDIO
    TITLE "2:cjc115_4518"
    INDEX 01 00:32:72
  TRACK 29 AUDIO
    TITLE "0:"
    INDEX 01 00:34:06
  TRACK 30 AUDIO
    TITLE "3:cjc115_4519"
    INDEX 01 00:34:10
  TRACK 31 AUDIO
    TITLE "0:"
    INDEX 01 00:36:40
  TRACK 32 AUDIO
    TITLE "4:cjc115_4520"
    INDEX 01 00:36:44
  TRACK 33 AUDIO
    TITLE "0:"
    INDEX 01 00:39:54
  TRACK 34 AUDIO
    TITLE "2:cjc115_4521"
    INDEX 01 00:40:64
  TRACK 35 AUDIO
    TITLE "0:"
    INDEX 01 00:42:06
  TRACK 36 AUDIO
    TITLE "3:cjc115_4522"
    INDEX 01 00:42:10
  TRACK 37 AUDIO
    TITLE "0:"
    INDEX 01 00:43:19
  TRACK 38 AUDIO
    TITLE "4:cjc115_4523"
    INDEX 01 00:43:27
  TRACK 39 AUDIO
    TITLE "0:"
    INDEX 01 00:45:33
  TRACK 40 AUDIO
    TITLE "2:cjc115_4524"
    INDEX 01 00:46:43
  TRACK 41 AUDIO
    TITLE "0:"
    INDEX 01 00:47:70
  TRACK 42 AUDIO
    TITLE "3:cjc115_4525"
    INDEX 01 00:48:00
  TRACK 43 AUDIO
    TITLE "0:"
    INDEX 01 00:50:11
  TRACK 44 AUDIO
    TITLE "4:cjc115_4526"
    INDEX 01 00:50:17
  TRACK 45 AUDIO
    TITLE "0:"
    INDEX 01 00:53:31
  TRACK 46 AUDIO
    TITLE "2:cjc115_4527"
    INDEX 01 00:54:38
  TRACK 47 AUDIO
    TITLE "0:"
    INDEX 01 00:55:65
  TRACK 48 AUDIO
    TITLE "3:cjc115_4528"
    INDEX 01 00:55:73
  TRACK 49 AUDIO
    TITLE "0:"
    INDEX 01 00:58:18
  TRACK 50 AUDIO
    TITLE "4:cjc115_4529"
    INDEX 01 00:58:36
  TRACK 51 AUDIO
    TITLE "0:"
    INDEX 01 01:02:08
  TRACK 52 AUDIO
    TITLE "2:cjc115_4530"
    INDEX 01 01:03:16
  TRACK 53 AUDIO
    TITLE "0:"
    INDEX 01 01:04:37
  TRACK 54 AUDIO
    TITLE "3:cjc115_4531"
    INDEX 01 01:04:45
  TRACK 55 AUDIO
    TITLE "0:"
    INDEX 01 01:05:69
  TRACK 56 AUDIO
    TITLE "4:cjc115_4532"
    INDEX 01 01:06:06
  TRACK 57 AUDIO
    TITLE "0:"
    INDEX 01 01:10:63
  TRACK 58 AUDIO
    TITLE "2:cjc115_4533"
    INDEX 01 01:12:01
  TRACK 59 AUDIO
    TITLE "0:"
    INDEX 01 01:13:12
  TRACK 60 AUDIO
    TITLE "3:cjc115_4534"
    INDEX 01 01:13:18
  TRACK 61 AUDIO
    TITLE "0:"
    INDEX 01 01:15:64
  TRACK 62 AUDIO
    TITLE "4:cjc115_4535"
    INDEX 01 01:16:01
  TRACK 63 AUDIO
    TITLE "0:"
    INDEX 01 01:19:21
  TRACK 64 AUDIO
    TITLE "2:cjc115_4536"
    INDEX 01 01:20:24
  TRACK 65 AUDIO
    TITLE "0:"
    INDEX 01 01:21:51
  TRACK 66 AUDIO
    TITLE "3:cjc115_4537"
    INDEX 01 01:21:53
  TRACK 67 AUDIO
    TITLE "0:"
    INDEX 01 01:22:56
  TRACK 68 AUDIO
    TITLE "4:cjc115_4538"
    INDEX 01 01:22:68
  TRACK 69 AUDIO
    TITLE "0:"
    INDEX 01 01:25:53
  TRACK 70 AUDIO
    TITLE "2:cjc115_4539"
    INDEX 01 01:26:60
  TRACK 71 AUDIO
    TITLE "0:"
    INDEX 01 01:28:18
  TRACK 72 AUDIO
    TITLE "3:cjc115_4540"
    INDEX 01 01:28:24
  TRACK 73 AUDIO
    TITLE "0:"
    INDEX 01 01:29:48
  TRACK 74 AUDIO
    TITLE "4:cjc115_4541"
    INDEX 01 01:29:52
  TRACK 75 AUDIO
    TITLE "0:"
    INDEX 01 01:34:54
